<svg width="32" height="32" viewBox="0 0 32 32" fill="none" xmlns="http://www.w3.org/2000/svg">
  <!-- Background circle -->
  <circle cx="16" cy="16" r="15" fill="#1A202C" stroke="#4A5568" stroke-width="2"/>
  
  <!-- Railway tracks -->
  <rect x="4" y="14" width="24" height="3" fill="#4A5568" rx="1.5"/>
  <rect x="4" y="15.5" width="24" height="1" fill="#2D3748"/>
  
  <!-- Railway ties -->
  <rect x="6" y="12" width="1.5" height="8" fill="#2D3748"/>
  <rect x="10" y="12" width="1.5" height="8" fill="#2D3748"/>
  <rect x="14" y="12" width="1.5" height="8" fill="#2D3748"/>
  <rect x="18" y="12" width="1.5" height="8" fill="#2D3748"/>
  <rect x="22" y="12" width="1.5" height="8" fill="#2D3748"/>
  <rect x="26" y="12" width="1.5" height="8" fill="#2D3748"/>
  
  <!-- Train locomotive -->
  <rect x="8" y="8" width="6" height="5" fill="#E53E3E" rx="1"/>
  <rect x="9" y="9" width="4" height="3" fill="#FED7D7" rx="0.5"/>
  <circle cx="10" cy="15" r="1" fill="#2D3748"/>
  <circle cx="12" cy="15" r="1" fill="#2D3748"/>
  
  <!-- Train cars -->
  <rect x="15" y="9" width="5" height="4" fill="#3182CE" rx="1"/>
  <rect x="16" y="10" width="3" height="2" fill="#BEE3F8" rx="0.5"/>
  <circle cx="16.5" cy="15" r="1" fill="#2D3748"/>
  <circle cx="18.5" cy="15" r="1" fill="#2D3748"/>
  
  <rect x="21" y="9" width="5" height="4" fill="#38A169" rx="1"/>
  <rect x="22" y="10" width="3" height="2" fill="#C6F6D5" rx="0.5"/>
  <circle cx="22.5" cy="15" r="1" fill="#2D3748"/>
  <circle cx="24.5" cy="15" r="1" fill="#2D3748"/>
  
  <!-- Signal light -->
  <rect x="2" y="4" width="2" height="6" fill="#4A5568" rx="1"/>
  <circle cx="3" cy="5.5" r="0.8" fill="#38A169"/>
  
  <!-- Network nodes -->
  <circle cx="6" cy="6" r="1" fill="#C3F632"/>
  <circle cx="26" cy="6" r="1" fill="#C3F632"/>
  <circle cx="6" cy="26" r="1" fill="#C3F632"/>
  <circle cx="26" cy="26" r="1" fill="#C3F632"/>
  
  <!-- Connection lines -->
  <path d="M6 6 L16 16" stroke="#C3F632" stroke-width="0.5" opacity="0.6"/>
  <path d="M26 6 L16 16" stroke="#C3F632" stroke-width="0.5" opacity="0.6"/>
  <path d="M6 26 L16 16" stroke="#C3F632" stroke-width="0.5" opacity="0.6"/>
  <path d="M26 26 L16 16" stroke="#C3F632" stroke-width="0.5" opacity="0.6"/>
</svg>
